<?xml version="1.0" encoding="UTF-8"?><!-- Generator: visioncortex VTracer 0.6.4 --><svg xmlns="http://www.w3.org/2000/svg" version="1.1" width="300" height="45" viewBox="0 0 805 121">
<path d="M0 0 C265.65 0 531.3 0 805 0 C805 39.93 805 79.86 805 121 C539.35 121 273.7 121 0 121 C0 81.07 0 41.14 0 0 Z " fill="#FBFCFC" transform="translate(0,0)"/>
<path d="M0 0 C1.48 0.39 1.48 0.39 2.98 0.8 C5.09 1.36 7.2 1.93 9.31 2.49 C14.81 3.98 20.33 5.45 25.84 6.92 C26.94 7.21 28.04 7.51 29.18 7.81 C39.23 10.49 49.31 13.11 59.39 15.69 C60.14 15.88 60.89 16.07 61.67 16.27 C65.72 17.31 69.77 18.34 73.83 19.38 C73.83 19.7 73.83 20.03 73.83 20.38 C15.09 20.38 -43.65 20.38 -104.17 20.38 C-101.04 18.81 -98.65 17.86 -95.33 16.99 C-94.36 16.74 -93.4 16.48 -92.4 16.22 C-91.36 15.95 -90.32 15.68 -89.24 15.4 C-87.61 14.97 -87.61 14.97 -85.94 14.53 C-82.39 13.6 -78.84 12.67 -75.3 11.75 C-70.46 10.49 -65.63 9.22 -60.8 7.96 C-59.61 7.65 -58.43 7.34 -57.2 7.02 C-50.53 5.27 -43.88 3.49 -37.23 1.64 C-35.84 1.25 -34.46 0.87 -33.07 0.48 C-30.63 -0.19 -28.2 -0.88 -25.77 -1.58 C-24.18 -2.02 -24.18 -2.02 -22.55 -2.46 C-21.23 -2.84 -21.23 -2.84 -19.88 -3.23 C-13.18 -4.21 -6.43 -1.74 0 0 Z " fill="#C68BEA" transform="translate(412.171875,15.625)"/>
<path d="M0 0 C3.21 1.93 5.86 3.57 8.7 5.88 C9.35 6.41 10 6.94 10.67 7.48 C11.34 8.02 12 8.57 12.69 9.12 C14.02 10.21 15.36 11.3 16.7 12.38 C17.58 13.1 17.58 13.1 18.48 13.83 C20.01 15.08 20.01 15.08 22 16 C22 10.72 22 5.44 22 0 C29.59 0 37.18 0 45 0 C45 15.18 45 30.36 45 46 C30.15 46 15.3 46 0 46 C0 30.82 0 15.64 0 0 Z " fill="#273472" transform="translate(685,57)"/>
<path d="M0 0 C6.2 3.53 10.37 8.42 12.33 15.33 C13.43 23.39 11.99 29.64 7.33 36.33 C2.95 41.25 -2.39 44.82 -9.05 45.61 C-16.57 45.89 -22.43 44.28 -28.42 39.7 C-34.28 34.21 -35.91 28.23 -36.3 20.33 C-36.07 13.51 -34.53 9.15 -29.67 4.33 C-20.29 -3.2 -11.2 -5 0 0 Z " fill="#263371" transform="translate(496.671875,58.671875)"/>
<path d="M0 0 C6.14 4.1 11.85 8.11 17.38 12.91 C19.14 14.41 19.14 14.41 22 16 C25.71 14.95 28.4 13.13 31.39 10.74 C32.18 10.12 32.97 9.49 33.79 8.85 C34.6 8.2 35.41 7.55 36.25 6.88 C37.88 5.58 39.51 4.28 41.14 2.99 C41.86 2.42 42.57 1.84 43.31 1.25 C45 0 45 0 46 0 C46 15.51 46 31.02 46 47 C30.82 47 15.64 47 0 47 C0 31.49 0 15.98 0 0 Z " fill="#283574" transform="translate(520,56)"/>
<path d="M0 0 C3.72 1.86 6.64 3.87 9.94 6.38 C10.96 7.15 11.98 7.92 13.03 8.71 C16 11 16 11 18.63 13.35 C20.79 15.2 20.79 15.2 23.02 14.98 C25.57 13.72 27.56 12.14 29.75 10.31 C30.62 9.6 31.49 8.88 32.39 8.14 C33.25 7.44 34.11 6.73 35 6 C36.49 4.82 37.99 3.65 39.5 2.5 C40.13 2.02 40.76 1.53 41.41 1.03 C43 0 43 0 45 0 C45 15.18 45 30.36 45 46 C30.15 46 15.3 46 0 46 C0 30.82 0 15.64 0 0 Z " fill="#253271" transform="translate(280,57)"/>
<path d="M0 0 C12.54 0 25.08 0 38 0 C38 4.95 38 9.9 38 15 C35.03 15 32.06 15 29 15 C29 15.66 29 16.32 29 17 C31.97 17 34.94 17 38 17 C38 20.63 38 24.26 38 28 C35.03 28 32.06 28 29 28 C29 28.99 29 29.98 29 31 C31.97 31 34.94 31 38 31 C38 35.95 38 40.9 38 46 C25.46 46 12.92 46 0 46 C0 30.82 0 15.64 0 0 Z " fill="#293571" transform="translate(337,57)"/>
<path d="M0 0 C4.12 -0.08 8.25 -0.16 12.5 -0.25 C13.78 -0.29 15.07 -0.32 16.39 -0.36 C23.94 -0.43 29.84 0.02 35.55 5.48 C40 10.54 40.3 14.74 40.21 21.21 C39.86 25.83 38.88 29.09 35.52 32.5 C31.19 35.98 27.49 36.71 22 37 C22 39.97 22 42.94 22 46 C14.74 46 7.48 46 0 46 C0 30.82 0 15.64 0 0 Z " fill="#283573" transform="translate(578,57)"/>
<path d="M0 0 C13.53 0 27.06 0 41 0 C41 7.59 41 15.18 41 23 C38.03 23 35.06 23 32 23 C32 30.59 32 38.18 32 46 C24.41 46 16.82 46 9 46 C9 38.41 9 30.82 9 23 C6.03 23 3.06 23 0 23 C0 15.41 0 7.82 0 0 Z " fill="#273470" transform="translate(191,57)"/>
<path d="M0 0 C4.45 3.76 6.84 8.67 9.62 13.69 C10.69 15.58 11.75 17.47 12.82 19.36 C13.35 20.3 13.88 21.25 14.43 22.22 C17.15 27.02 19.96 31.76 22.79 36.49 C23.17 37.13 23.55 37.77 23.94 38.43 C24.43 39.25 24.43 39.25 24.93 40.09 C26.38 42.68 27.67 45.35 29 48 C10.19 48 -8.62 48 -28 48 C-26.58 44.46 -25.3 41.61 -23.38 38.4 C-22.86 37.53 -22.34 36.65 -21.81 35.75 C-21.25 34.82 -20.7 33.89 -20.12 32.94 C-19.55 31.98 -18.98 31.02 -18.39 30.03 C-16.6 27.02 -14.8 24.01 -13 21 C-11.84 19.05 -10.67 17.09 -9.51 15.14 C-8.42 13.32 -7.34 11.5 -6.25 9.69 C-5.48 8.4 -5.48 8.4 -4.7 7.08 C-4.22 6.3 -3.75 5.51 -3.27 4.7 C-2.85 4.01 -2.44 3.31 -2.01 2.6 C-1 1 -1 1 0 0 Z " fill="#273471" transform="translate(33,55)"/>
<path d="M0 0 C3.59 1.2 3.8 1.89 5.57 5.09 C6.05 5.95 6.53 6.81 7.02 7.69 C7.79 9.08 7.79 9.08 8.56 10.5 C9.64 12.42 10.71 14.34 11.79 16.27 C12.33 17.23 12.86 18.2 13.42 19.19 C16.08 23.91 18.84 28.57 21.61 33.23 C24.5 38.11 27.24 43.04 30 48 C11.19 48 -7.62 48 -27 48 C-25.53 44.31 -24.12 41.3 -22.13 37.93 C-21.56 36.96 -20.99 35.99 -20.4 34.99 C-19.8 33.96 -19.19 32.93 -18.56 31.88 C-17.3 29.73 -16.04 27.58 -14.78 25.43 C-13.83 23.82 -13.83 23.82 -12.86 22.17 C-10.1 17.46 -7.36 12.73 -4.62 8 C-4.16 7.19 -3.69 6.38 -3.2 5.54 C-2.13 3.69 -1.07 1.85 0 0 Z " fill="#273471" transform="translate(646,55)"/>
<path d="M0 0 C1.68 0.94 3.3 2 4.91 3.07 C3.61 6.59 1.54 8.28 -1.36 10.57 C-4.62 13.4 -7.32 16.77 -10.09 20.07 C-8.77 23 -7.37 25.02 -5.05 27.23 C-4.47 27.8 -3.89 28.36 -3.29 28.95 C-2.69 29.52 -2.09 30.1 -1.46 30.7 C-0.26 31.85 0.94 33.01 2.14 34.17 C2.67 34.68 3.2 35.19 3.75 35.71 C4.91 37.07 4.91 37.07 4.91 39.07 C-2.01 44.34 -8.52 46.08 -17.09 45.07 C-24.25 43.23 -29.08 39.22 -33.09 33.07 C-36.5 26 -37.13 19.55 -34.59 12.07 C-31.69 5.33 -26.96 1.72 -20.71 -1.87 C-13.11 -4.1 -7.09 -3.47 0 0 Z " fill="#283572" transform="translate(448.08984375,58.9296875)"/>
<path d="M0 0 C7.59 0 15.18 0 23 0 C23 7.59 23 15.18 23 23 C26.96 23 30.92 23 35 23 C35 30.59 35 38.18 35 46 C23.45 46 11.9 46 0 46 C0 30.82 0 15.64 0 0 Z " fill="#273473" transform="translate(118,57)"/>
<path d="M0 0 C15.84 0 31.68 0 48 0 C41 14 41 14 38.11 18.09 C34.85 23.1 35.22 28.7 35.19 34.5 C35.16 35.61 35.14 36.72 35.11 37.86 C35.05 40.57 35.02 43.29 35 46 C27.74 46 20.48 46 13 46 C13.03 44.44 13.06 42.88 13.1 41.28 C13.12 29.11 12.56 20.07 5.23 10.12 C3 7 3 7 0 0 Z " fill="#253270" transform="translate(740,57)"/>
<path d="M0 0 C7.26 0 14.52 0 22 0 C22 7.59 22 15.18 22 23 C26.29 23 30.58 23 35 23 C35 30.59 35 38.18 35 46 C23.45 46 11.9 46 0 46 C0 30.82 0 15.64 0 0 Z " fill="#253271" transform="translate(71,57)"/>
<path d="M0 0 C7.59 0 15.18 0 23 0 C23 15.18 23 30.36 23 46 C15.41 46 7.82 46 0 46 C0 30.82 0 15.64 0 0 Z " fill="#243372" transform="translate(244,57)"/>
<path d="M0 0 C1.32 0 2.64 0 4 0 C4 39.93 4 79.86 4 121 C2.68 121 1.36 121 0 121 C0 81.07 0 41.14 0 0 Z " fill="#E5EDFB" transform="translate(801,0)"/>
<path d="M0 0 C0.66 0 1.32 0 2 0 C2 32.01 2 64.02 2 97 C5.05 97.16 5.05 97.16 8 96 C6.36 100.67 6.36 100.67 4.46 102.42 C2.65 104.38 2.59 105.38 2.49 108.01 C2.45 108.77 2.42 109.53 2.38 110.31 C2.36 111.09 2.34 111.88 2.31 112.69 C2.28 113.48 2.24 114.28 2.21 115.1 C2.13 117.07 2.06 119.03 2 121 C1.34 121 0.68 121 0 121 C0 81.07 0 41.14 0 0 Z " fill="#E5ECF2" transform="translate(0,0)"/>
<path d="M0 0 C7.59 0 15.18 0 23 0 C23 15.18 23 30.36 23 46 C15.41 46 7.82 46 0 46 C0 30.82 0 15.64 0 0 Z M2 1 C1.07 5.73 0.85 10.33 0.87 15.14 C0.87 15.9 0.87 16.66 0.86 17.44 C0.86 19.04 0.87 20.64 0.87 22.24 C0.88 24.69 0.87 27.14 0.86 29.59 C0.86 31.15 0.87 32.7 0.87 34.26 C0.87 34.99 0.86 35.72 0.86 36.48 C0.88 39.59 1.01 42.02 2 45 C2.52 44.85 3.05 44.69 3.59 44.53 C7.7 43.63 11.9 43.55 16.1 43.28 C18.94 43.18 18.94 43.18 21 42 C21 29.13 21 16.26 21 3 C17.16 1.72 13.8 1.97 9.79 2.06 C7.07 2 4.65 1.62 2 1 Z " fill="#2A3361" transform="translate(244,57)"/>
<path d="M0 0 C4 2 4 2 6 4 C4.68 4.33 3.36 4.66 2 5 C1.67 18.2 1.34 31.4 1 45 C3.97 44.34 6.94 43.68 10 43 C13.64 42.79 13.64 42.79 17.12 42.84 C18.38 42.85 19.65 42.86 20.95 42.87 C22.25 42.89 23.54 42.92 24.88 42.94 C27.48 42.97 30.08 43 32.68 43.03 C34.39 43.05 34.39 43.05 36.14 43.08 C39.07 43.14 39.07 43.14 42 42 C43.64 38.73 43.24 35.09 43.32 31.49 C43.34 30.65 43.36 29.81 43.38 28.94 C43.44 26.25 43.5 23.57 43.56 20.88 C43.61 19.05 43.65 17.23 43.69 15.41 C43.8 10.94 43.9 6.47 44 2 C43.34 1.67 42.68 1.34 42 1 C42.99 0.67 43.98 0.34 45 0 C45 15.18 45 30.36 45 46 C30.15 46 15.3 46 0 46 C0 30.82 0 15.64 0 0 Z " fill="#2E3763" transform="translate(280,57)"/>
<path d="M0 0 C0.97 0.24 1.94 0.48 2.94 0.73 C3.58 0.89 4.22 1.05 4.88 1.22 C6.3 1.58 7.73 1.93 9.15 2.29 C9.89 2.47 10.62 2.65 11.38 2.84 C14.46 3.61 17.54 4.39 20.62 5.16 C21.36 5.34 22.09 5.52 22.85 5.71 C24.27 6.07 25.7 6.42 27.12 6.78 C27.76 6.94 28.4 7.1 29.06 7.27 C30.03 7.51 31 7.75 32 8 C32 8.33 32 8.66 32 9 C-46.21 8.5 -46.21 8.5 -126 8 C-126 7.67 -126 7.34 -126 7 C-81.12 7 -36.24 7 10 7 C10 6.01 10 5.02 10 4 C6.7 3.34 3.4 2.68 0 2 C0 1.34 0 0.68 0 0 Z " fill="#BB8AE1" transform="translate(454,27)"/>
<path d="M0 0 C2 1.62 2 1.62 3 4 C2.93 7.74 2.76 10.06 0.38 13 C-3.12 14.47 -5.39 13.98 -9 13 C-11 11.38 -11 11.38 -12 9 C-11.93 5.26 -11.76 2.94 -9.38 0 C-5.88 -1.47 -3.61 -0.98 0 0 Z " fill="#303A66" transform="translate(399,89)"/>
<path d="M0 0 C2 1.62 2 1.62 3 4 C2.93 7.75 2.82 10.06 0.31 12.94 C-2.77 14.35 -4.65 14.56 -8 14 C-10.44 11.94 -10.44 11.94 -12 9 C-12 5.2 -11.8 2.98 -9.38 0 C-5.88 -1.47 -3.61 -0.98 0 0 Z " fill="#24326F" transform="translate(177,89)"/>
<path d="M0 0 C7.26 0 14.52 0 22 0 C22 7.59 22 15.18 22 23 C21.34 22.67 20.68 22.34 20 22 C19.67 16.06 19.34 10.12 19 4 C10.9 1.79 10.9 1.79 2 1 C2 15.19 2 29.38 2 44 C17.84 44.5 17.84 44.5 34 45 C34 45.33 34 45.66 34 46 C22.78 46 11.56 46 0 46 C0 30.82 0 15.64 0 0 Z " fill="#2B325E" transform="translate(71,57)"/>
<path d="M0 0 C18.15 0 36.3 0 55 0 C55.5 1.48 55.5 1.48 56 3 C37.19 3 18.38 3 -1 3 C-0.67 2.01 -0.34 1.02 0 0 Z " fill="#2B3662" transform="translate(620,100)"/>
<path d="M0 0 C15.84 0 31.68 0 48 0 C47.01 1.98 46.02 3.96 45 6 C42 5 42 5 40 3 C37.48 2.7 37.48 2.7 34.54 2.77 C32.87 2.77 32.87 2.77 31.17 2.78 C30 2.79 28.83 2.8 27.62 2.81 C26.49 2.81 25.36 2.81 24.2 2.81 C16.76 2.85 9.41 3.27 2 4 C1.34 2.68 0.68 1.36 0 0 Z " fill="#2C3361" transform="translate(740,57)"/>
<path d="M0 0 C3.96 0 7.92 0 12 0 C12 7.59 12 15.18 12 23 C0.78 23 -10.44 23 -22 23 C-21.67 22.01 -21.34 21.02 -21 20 C-11.43 20 -1.86 20 8 20 C10.06 15.87 10.42 12.73 10.62 8.25 C10.66 7.55 10.7 6.86 10.74 6.14 C10.84 4.42 10.92 2.71 11 1 C7.37 1 3.74 1 0 1 C0 0.67 0 0.34 0 0 Z " fill="#2A3362" transform="translate(141,80)"/>
<path d="M0 0 C0 15.51 0 31.02 0 47 C-0.33 46.34 -0.66 45.68 -1 45 C-1.66 45 -2.32 45 -3 45 C-4.12 41.25 -4.12 41.25 -3 39 C-2.91 36.68 -2.89 34.35 -2.9 32.02 C-2.9 31.34 -2.91 30.65 -2.91 29.95 C-2.91 27.76 -2.92 25.57 -2.94 23.38 C-2.94 21.89 -2.95 20.41 -2.95 18.92 C-2.96 15.28 -2.98 11.64 -3 8 C-3.78 8.21 -4.57 8.41 -5.38 8.62 C-6.24 8.75 -7.11 8.87 -8 9 C-8.66 8.34 -9.32 7.68 -10 7 C-8.52 5.83 -7.04 4.66 -5.56 3.5 C-4.74 2.85 -3.92 2.2 -3.07 1.53 C-1 0 -1 0 0 0 Z " fill="#444A78" transform="translate(566,56)"/>
<path d="M0 0 C0.66 0 1.32 0 2 0 C2 0.66 2 1.32 2 2 C7.5 2.02 13 2.04 18.5 2.05 C20.37 2.06 22.24 2.07 24.11 2.08 C26.8 2.09 29.49 2.09 32.18 2.1 C33.01 2.1 33.85 2.11 34.71 2.11 C38.06 2.11 40.8 2.07 44 1 C44 2.32 44 3.64 44 5 C29.48 5 14.96 5 0 5 C0 3.35 0 1.7 0 0 Z " fill="#283361" transform="translate(685,98)"/>
<path d="M0 0 C0 0.66 0 1.32 0 2 C-11.75 4.94 -11.75 4.94 -13.74 5.43 C-15.44 5.86 -17.15 6.29 -18.86 6.72 C-24.89 8.24 -30.92 9.68 -37 11 C-36.34 11.66 -35.68 12.32 -35 13 C-44.4 13.5 -44.4 13.5 -54 14 C-50.93 12.47 -48.62 11.52 -45.39 10.67 C-44.48 10.43 -43.57 10.19 -42.64 9.94 C-41.66 9.69 -40.69 9.44 -39.69 9.18 C-38.68 8.92 -37.68 8.65 -36.64 8.38 C-34.52 7.83 -32.39 7.27 -30.26 6.72 C-27.01 5.88 -23.76 5.02 -20.51 4.17 C-18.44 3.63 -16.38 3.09 -14.31 2.55 C-12.85 2.17 -12.85 2.17 -11.36 1.78 C-10.46 1.54 -9.55 1.31 -8.61 1.07 C-7.82 0.86 -7.02 0.66 -6.2 0.44 C-4 0 -4 0 0 0 Z " fill="#C199DD" transform="translate(362,22)"/>
<path d="M0 0 C0.5 0.99 0.5 0.99 1 2 C1.66 2 2.32 2 3 2 C3 2.66 3 3.32 3 4 C-11.52 4 -26.04 4 -41 4 C-41 3.01 -41 2.02 -41 1 C-38.52 1.99 -38.52 1.99 -36 3 C-36 2.34 -36 1.68 -36 1 C-31.52 0.98 -27.03 0.96 -22.55 0.95 C-21.02 0.94 -19.5 0.93 -17.97 0.92 C-15.78 0.91 -13.59 0.91 -11.39 0.9 C-9.41 0.89 -9.41 0.89 -7.39 0.89 C-4.69 0.98 -2.55 1.18 0 2 C0 1.34 0 0.68 0 0 Z " fill="#283360" transform="translate(562,99)"/>
<path d="M0 0 C6.93 0 13.86 0 21 0 C21 12.87 21 25.74 21 39 C20.67 39 20.34 39 20 39 C19.67 27.45 19.34 15.9 19 4 C15.92 2.97 13.45 2.96 10.23 3.06 C7.47 2.99 4.73 2.45 2 2 C1.67 6.62 1.34 11.24 1 16 C0.67 16 0.34 16 0 16 C0 10.72 0 5.44 0 0 Z " fill="#2A3163" transform="translate(708,57)"/>
<path d="M0 0 C11.88 0 23.76 0 36 0 C35.67 1.32 35.34 2.64 35 4 C34.34 4 33.68 4 33 4 C33 3.34 33 2.68 33 2 C29.44 1.97 25.88 1.95 22.31 1.94 C21.31 1.93 20.3 1.92 19.26 1.91 C18.28 1.91 17.31 1.91 16.3 1.9 C15.41 1.9 14.51 1.89 13.59 1.89 C10.97 1.93 10.97 1.93 8.36 2.57 C6 3 6 3 3 2 C3 2.66 3 3.32 3 4 C2.34 4 1.68 4 1 4 C1 15.55 1 27.1 1 39 C0.67 39 0.34 39 0 39 C0 26.13 0 13.26 0 0 Z " fill="#2A3260" transform="translate(338,57)"/>
<path d="M0 0 C0.99 1.48 0.99 1.48 2 3 C2.99 3 3.98 3 5 3 C4.51 3.74 4.51 3.74 4.01 4.49 C2.59 8.03 2.81 11.41 2.91 15.16 C2.93 16.77 2.95 18.39 2.97 20 C3.01 22.54 3.06 25.08 3.12 27.61 C3.16 30.07 3.19 32.52 3.22 34.97 C3.24 35.73 3.27 36.49 3.29 37.27 C3.31 39.42 3.31 39.42 3 43 C2.01 43.99 1.02 44.98 0 46 C0 30.82 0 15.64 0 0 Z " fill="#354170" transform="translate(118,57)"/>
<path d="M0 0 C1.3 0.4 1.3 0.4 2.62 0.82 C3.26 1.02 3.9 1.23 4.56 1.44 C1.29 2.53 0.55 2.34 -2.62 1.44 C-11.17 -0.58 -19.15 2.26 -27.44 4.44 C-28.77 4.77 -30.1 5.11 -31.44 5.44 C-31.44 6.1 -31.44 6.76 -31.44 7.44 C-34.74 7.44 -38.04 7.44 -41.44 7.44 C-41.77 6.78 -42.1 6.12 -42.44 5.44 C-38.3 4.26 -34.15 3.11 -30 1.96 C-28.6 1.57 -27.19 1.18 -25.78 0.78 C-23.75 0.2 -21.72 -0.35 -19.68 -0.91 C-17.85 -1.42 -17.85 -1.42 -15.99 -1.94 C-10.33 -2.93 -5.4 -1.7 0 0 Z " fill="#C497DD" transform="translate(407.4375,14.5625)"/>
<path d="M0 0 C1.94 0.81 1.94 0.81 4 2 C4.49 3.48 4.49 3.48 5 5 C-13.48 5 -31.96 5 -51 5 C-50.67 4.34 -50.34 3.68 -50 3 C-45.52 1.74 -45.52 1.74 -43 3 C-39.94 3.16 -36.9 3.26 -33.84 3.32 C-32.48 3.35 -32.48 3.35 -31.09 3.38 C-28.18 3.44 -25.28 3.5 -22.38 3.56 C-20.41 3.61 -18.44 3.65 -16.48 3.69 C-11.65 3.8 -6.83 3.9 -2 4 C-1.34 2.68 -0.68 1.36 0 0 Z " fill="#2A335A" transform="translate(57,98)"/>
<path d="M0 0 C8.75 -0.66 14.74 1.16 22 6 C20.51 9.8 18.24 11.61 15 14 C15.04 13.22 15.08 12.43 15.12 11.62 C15.29 8.84 15.29 8.84 13 7 C13.33 6.34 13.66 5.68 14 5 C13.01 4.67 12.02 4.34 11 4 C10.67 3.67 10.34 3.34 10 3 C8.48 2.93 6.96 2.92 5.44 2.94 C4.2 2.95 4.2 2.95 2.93 2.96 C1.98 2.98 1.98 2.98 1 3 C0.67 2.01 0.34 1.02 0 0 Z " fill="#374371" transform="translate(431,56)"/>
<path d="M0 0 C3 1 3 1 4.39 3.29 C4.82 4.2 5.25 5.12 5.69 6.06 C6.34 7.44 6.34 7.44 7.01 8.85 C7.34 9.56 7.66 10.27 8 11 C7.01 11.33 6.02 11.66 5 12 C5 11.01 5 10.02 5 9 C3.68 9 2.36 9 1 9 C0.34 10.32 -0.32 11.64 -1 13 C-1.33 12.34 -1.66 11.68 -2 11 C-2.33 11.99 -2.66 12.98 -3 14 C-4.32 13.34 -5.64 12.68 -7 12 C-4.69 8.04 -2.38 4.08 0 0 Z " fill="#364071" transform="translate(646,55)"/>
<path d="M0 0 C6.93 0 13.86 0 21 0 C21 7.26 21 14.52 21 22 C20.67 22 20.34 22 20 22 C19.5 12.1 19.5 12.1 19 2 C17.02 2.33 15.04 2.66 13 3 C11.08 3.04 9.17 3.04 7.25 3 C3.48 2.83 3.48 2.83 0 4 C0 2.68 0 1.36 0 0 Z " fill="#2A3262" transform="translate(119,57)"/>
<path d="M0 0 C4.29 0 8.58 0 13 0 C13 7.59 13 15.18 13 23 C9.7 22.67 6.4 22.34 3 22 C3 21.34 3 20.68 3 20 C5.31 20 7.62 20 10 20 C10.33 13.73 10.66 7.46 11 1 C7.37 1 3.74 1 0 1 C0 0.67 0 0.34 0 0 Z " fill="#3A4272" transform="translate(93,80)"/>
<path d="M0 0 C0 0.66 0 1.32 0 2 C-0.74 2.12 -1.49 2.25 -2.25 2.38 C-4.87 2.97 -6.64 3.75 -9 5 C-10.79 5.68 -10.79 5.68 -12.62 6.38 C-16.05 7.67 -16.05 7.67 -17.44 10.19 C-17.72 11.08 -17.72 11.08 -18 12 C-18.99 11.67 -19.98 11.34 -21 11 C-21 10.01 -21 9.02 -21 8 C-14.61 1.77 -8.72 -0.3 0 0 Z " fill="#343C6F" transform="translate(487,56)"/>
<path d="M0 0 C8.25 0 16.5 0 25 0 C23.67 2.66 22.52 2.78 19.75 3.75 C16.49 4.8 15.33 5.09 11.94 4.19 C11.3 3.8 10.66 3.4 10 3 C9.67 3.66 9.34 4.32 9 5 C9 4.34 9 3.68 9 3 C7.35 3 5.7 3 4 3 C4 2.34 4 1.68 4 1 C2.68 1.99 1.36 2.98 0 4 C0 2.68 0 1.36 0 0 Z " fill="#2C3363" transform="translate(579,57)"/>
<path d="M0 0 C-1.64 4.67 -1.64 4.67 -3.54 6.42 C-5.35 8.38 -5.41 9.38 -5.51 12.01 C-5.55 12.77 -5.58 13.53 -5.62 14.31 C-5.64 15.09 -5.66 15.88 -5.69 16.69 C-5.72 17.48 -5.76 18.28 -5.79 19.1 C-5.87 21.07 -5.94 23.03 -6 25 C-6.66 25 -7.32 25 -8 25 C-8.03 21.54 -8.05 18.08 -8.06 14.62 C-8.07 13.64 -8.08 12.66 -8.09 11.64 C-8.09 10.7 -8.09 9.76 -8.1 8.79 C-8.1 7.92 -8.11 7.05 -8.11 6.15 C-8 4 -8 4 -7 2 C-2.67 0 -2.67 0 0 0 Z " fill="#EAEEF7" transform="translate(8,96)"/>
<path d="M0 0 C2.06 1.75 2.06 1.75 4 4 C3.75 6.25 3.75 6.25 3 8 C2.34 8 1.68 8 1 8 C1 7.34 1 6.68 1 6 C0.34 6 -0.32 6 -1 6 C-1.14 6.95 -1.29 7.9 -1.44 8.88 C-2 12 -2 12 -3 14 C-3.99 14 -4.98 14 -6 14 C-6.33 14.66 -6.66 15.32 -7 16 C-7.71 14.36 -7.71 14.36 -8 12 C-6.6 9.24 -6.6 9.24 -4.62 6.31 C-3.98 5.34 -3.33 4.37 -2.66 3.36 C-1 1 -1 1 0 0 Z " fill="#343E6F" transform="translate(33,55)"/>
<path d="M0 0 C3.5 0.88 3.5 0.88 5.5 2.5 C6.94 5.92 6.37 8.33 5.5 11.88 C4.51 12.37 4.51 12.37 3.5 12.88 C2.84 12.55 2.18 12.22 1.5 11.88 C1.5 11.22 1.5 10.56 1.5 9.88 C2.16 9.88 2.82 9.88 3.5 9.88 C2.86 7.84 2.86 7.84 1.5 5.88 C-1.03 5.22 -1.03 5.22 -3.5 4.88 C-3.83 4.22 -4.16 3.56 -4.5 2.88 C-5.16 2.55 -5.82 2.22 -6.5 1.88 C-3.5 -0.12 -3.5 -0.12 0 0 Z " fill="#333A6F" transform="translate(173.5,88.125)"/>
<path d="M0 0 C0.97 0.24 1.94 0.48 2.94 0.73 C3.9 0.97 3.9 0.97 4.88 1.22 C6.3 1.58 7.73 1.93 9.15 2.29 C10.25 2.56 10.25 2.56 11.38 2.84 C14.46 3.61 17.54 4.39 20.62 5.16 C21.73 5.43 21.73 5.43 22.85 5.71 C24.27 6.07 25.7 6.42 27.12 6.78 C28.08 7.02 28.08 7.02 29.06 7.27 C30.03 7.51 31 7.75 32 8 C32 8.33 32 8.66 32 9 C31.42 8.94 30.83 8.88 30.23 8.82 C23.5 8.13 16.75 7.55 10 7 C10 6.01 10 5.02 10 4 C6.7 3.34 3.4 2.68 0 2 C0 1.34 0 0.68 0 0 Z " fill="#C199D9" transform="translate(454,27)"/>
<path d="M0 0 C0.33 0 0.66 0 1 0 C1.33 1.98 1.66 3.96 2 6 C2.56 5.65 3.11 5.3 3.69 4.94 C6 4 6 4 8.19 4.44 C12.22 5.24 15.96 4.57 20 4 C20.33 5.32 20.66 6.64 21 8 C14.07 8 7.14 8 0 8 C0 5.36 0 2.72 0 0 Z " fill="#2B3261" transform="translate(201,95)"/>
<path d="M0 0 C0 0.66 0 1.32 0 2 C-1.32 2 -2.64 2 -4 2 C-4 4.97 -4 7.94 -4 11 C-10.93 11 -17.86 11 -25 11 C-24.67 9.68 -24.34 8.36 -24 7 C-23.67 7.66 -23.34 8.32 -23 9 C-21.17 8.72 -21.17 8.72 -19.31 8.44 C-15.93 8 -13.34 8.26 -10 9 C-7.77 8.63 -7.77 8.63 -6 8 C-5.67 5.69 -5.34 3.38 -5 1 C-2 0 -2 0 0 0 Z " fill="#2A315D" transform="translate(604,92)"/>
<path d="M0 0 C0.33 0 0.66 0 1 0 C1 7.59 1 15.18 1 23 C0.01 22.67 -0.98 22.34 -2 22 C-2.06 18.9 -2.09 15.79 -2.12 12.69 C-2.14 11.81 -2.16 10.93 -2.18 10.02 C-2.18 9.17 -2.19 8.32 -2.2 7.45 C-2.21 6.67 -2.22 5.89 -2.23 5.08 C-2 3 -2 3 0 0 Z " fill="#3D467E" transform="translate(231,57)"/>
<path d="M0 0 C1.06 1.88 1.06 1.88 2 4 C1.67 4.66 1.34 5.32 1 6 C0.34 6 -0.32 6 -1 6 C-1.33 8.31 -1.66 10.62 -2 13 C-1.34 13 -0.68 13 0 13 C0 13.66 0 14.32 0 15 C-1.67 15.22 -1.67 15.22 -3.38 15.44 C-6.82 15.78 -6.82 15.78 -9 17 C-7.51 12.96 -5.57 9.39 -3.38 5.69 C-2.74 4.62 -2.11 3.55 -1.46 2.45 C-0.98 1.64 -0.5 0.83 0 0 Z " fill="#384171" transform="translate(14,86)"/>
<path d="M0 0 C-0.33 0.99 -0.66 1.98 -1 3 C-1.66 3 -2.32 3 -3 3 C-3 4.32 -3 5.64 -3 7 C-3.3 8.34 -3.62 9.68 -4 11 C-7 11 -7 11 -10 9 C-10 9.66 -10 10.32 -10 11 C-10.99 10.67 -11.98 10.34 -13 10 C-3.29 0 -3.29 0 0 0 Z " fill="#333F70" transform="translate(322,59)"/>
<path d="M0 0 C3.65 1.25 4.78 1.67 7 5 C6.94 8.5 6.94 8.5 6 12 C3.44 13.94 3.44 13.94 1 15 C1.61 12.04 2.25 10.62 4 8 C3.34 7.67 2.68 7.34 2 7 C2.66 6.01 3.32 5.02 4 4 C2.68 4 1.36 4 0 4 C0 2.68 0 1.36 0 0 Z " fill="#3B4370" transform="translate(395,88)"/>
<path d="M0 0 C0 7.59 0 15.18 0 23 C-0.66 22.67 -1.32 22.34 -2 22 C-2.04 20.72 -2.07 19.45 -2.11 18.13 C-2.18 16.46 -2.25 14.79 -2.31 13.12 C-2.34 12.28 -2.36 11.44 -2.38 10.57 C-2.42 9.77 -2.45 8.96 -2.49 8.13 C-2.51 7.39 -2.54 6.65 -2.57 5.88 C-2.87 3.59 -2.87 3.59 -6 2 C-1.12 0 -1.12 0 0 0 Z " fill="#303968" transform="translate(93,57)"/>
<path d="M0 0 C2.97 0.5 2.97 0.5 6 1 C6 3 6 5 6 7 C3.69 7.33 1.38 7.66 -1 8 C-3 4.25 -3 4.25 -3 2 C-2.01 2 -1.02 2 0 2 C0 1.34 0 0.68 0 0 Z " fill="#233479" transform="translate(393,91)"/>
<path d="M0 0 C1.98 0.99 1.98 0.99 4 2 C3.67 2.5 3.35 3 3.01 3.51 C1.62 6.94 1.75 10.19 1.8 13.83 C1.81 14.58 1.81 15.33 1.81 16.1 C1.82 18.48 1.85 20.87 1.88 23.25 C1.89 24.87 1.89 26.49 1.9 28.11 C1.92 32.07 1.96 36.04 2 40 C1.34 40 0.68 40 0 40 C0 26.8 0 13.6 0 0 Z " fill="#2C3563" transform="translate(685,57)"/>
<path d="M0 0 C-0.99 0.33 -1.98 0.66 -3 1 C-4.23 4.51 -4.23 4.51 -5 8 C-5.99 7.67 -6.98 7.34 -8 7 C-7.67 7.99 -7.34 8.98 -7 10 C-7.99 10 -8.98 10 -10 10 C-10 7.03 -10 4.06 -10 1 C-2.25 -1.12 -2.25 -1.12 0 0 Z " fill="#E6EBF3" transform="translate(610,93)"/>
<path d="M0 0 C2.44 0.81 2.44 0.81 5 2 C6 5 6 5 6 8 C7.98 8 9.96 8 12 8 C10 10 10 10 7.12 10.44 C4 10 4 10 1.62 7.81 C-0.09 4.84 -0.38 3.36 0 0 Z " fill="#2C3A6B" transform="translate(165,93)"/>
<path d="M0 0 C1.94 0.31 1.94 0.31 4 1 C4.33 1.99 4.66 2.98 5 4 C5.66 3.67 6.32 3.34 7 3 C7.49 4.99 7.98 6.97 8.46 8.96 C8.91 10.66 9.44 12.33 10 14 C10.66 14.33 11.32 14.66 12 15 C10.68 15.33 9.36 15.66 8 16 C6.66 13.71 5.33 11.42 4 9.12 C3.62 8.47 3.24 7.82 2.84 7.15 C0 2.23 0 2.23 0 0 Z " fill="#353E72" transform="translate(743,62)"/>
<path d="M0 0 C0.66 0.33 1.32 0.66 2 1 C-0.64 5.62 -3.28 10.24 -6 15 C-6.66 14.34 -7.32 13.68 -8 13 C-7.62 9.88 -7.62 9.88 -7 7 C-6.34 7 -5.68 7 -5 7 C-5 6.34 -5 5.68 -5 5 C-4.34 5 -3.68 5 -3 5 C-2.69 4.36 -2.38 3.72 -2.06 3.06 C-1 1 -1 1 0 0 Z " fill="#EAF0F9" transform="translate(26,63)"/>
<path d="M0 0 C5.18 3.28 9.86 6.46 14 11 C10.28 11.2 9.23 11.15 6 9 C6 8.34 6 7.68 6 7 C5.01 6.67 4.02 6.34 3 6 C3 5.34 3 4.68 3 4 C2.34 4 1.68 4 1 4 C0.67 2.68 0.34 1.36 0 0 Z " fill="#323C6A" transform="translate(286,61)"/>
<path d="M0 0 C0.93 3.7 1.08 4.63 0 8 C2.64 8.33 5.28 8.66 8 9 C8 9.33 8 9.66 8 10 C6.38 10.03 4.75 10.05 3.12 10.06 C2.22 10.07 1.32 10.09 0.38 10.1 C-2 10 -2 10 -4 9 C-4 9.66 -4 10.32 -4 11 C-4.66 10.67 -5.32 10.34 -6 10 C-4.02 6.7 -2.04 3.4 0 0 Z " fill="#384277" transform="translate(627,88)"/>
<path d="M0 0 C3.33 3.12 4.93 4.99 5.1 9.7 C5.09 10.69 5.07 11.67 5.06 12.69 C5.05 13.68 5.04 14.68 5.04 15.7 C5.02 16.46 5.01 17.22 5 18 C4.67 18 4.34 18 4 18 C3.88 17.34 3.76 16.67 3.63 15.99 C2.77 11.43 1.82 7.29 0 3 C0 2.01 0 1.02 0 0 Z " fill="#2F3860" transform="translate(613,63)"/>
<path d="M0 0 C0.66 0.33 1.32 0.66 2 1 C0.02 4.63 -1.96 8.26 -4 12 C-4.66 11.01 -5.32 10.02 -6 9 C-6.66 8.67 -7.32 8.34 -8 8 C-7.34 7.01 -6.68 6.02 -6 5 C-5.67 5.33 -5.34 5.66 -5 6 C-4.34 5.01 -3.68 4.02 -3 3 C-2.02 1.98 -1.02 0.98 0 0 Z " fill="#EBF0F7" transform="translate(625,88)"/>
<path d="M0 0 C1.18 0.93 2.34 1.87 3.5 2.81 C4.15 3.33 4.8 3.86 5.47 4.39 C7.55 6.57 7 8.12 7 11 C6.01 11 5.02 11 4 11 C2.24 7.91 2 6.77 2 3 C1.01 2.67 0.02 2.34 -1 2 C-0.67 1.34 -0.34 0.68 0 0 Z " fill="#374172" transform="translate(498,60)"/>
<path d="M0 0 C1.11 0.6 2.23 1.2 3.38 1.81 C4.31 2.32 4.31 2.32 5.27 2.83 C7 4 7 4 9 7 C8.01 7 7.02 7 6 7 C6 6.34 6 5.68 6 5 C4.02 5.35 4.02 5.35 2 6 C1.67 6.66 1.34 7.32 1 8 C0 7 0 7 -0.06 3.44 C-0.04 2.3 -0.02 1.17 0 0 Z " fill="#353E6D" transform="translate(521,57)"/>
<path d="M0 0 C1.15 0.93 2.3 1.87 3.44 2.81 C4.08 3.33 4.71 3.86 5.37 4.39 C7 6 7 6 8 9 C3.55 8.01 3.55 8.01 -1 7 C-0.67 4.69 -0.34 2.38 0 0 Z " fill="#414E7B" transform="translate(445,89)"/>
<path d="M0 0 C-0.33 2.31 -0.66 4.62 -1 7 C-3.88 7.62 -3.88 7.62 -7 8 C-7.66 7.34 -8.32 6.68 -9 6 C-7.69 5 -6.38 4 -5.06 3 C-4.33 2.44 -3.6 1.89 -2.85 1.31 C-1 0 -1 0 0 0 Z " fill="#313B69" transform="translate(565,57)"/>
<path d="M0 0 C2.12 0.94 2.12 0.94 4 2 C2.95 4.62 2.35 5.79 -0.12 7.25 C-0.74 7.5 -1.36 7.75 -2 8 C-2.66 7.34 -3.32 6.68 -4 6 C-3.34 6 -2.68 6 -2 6 C-2 4.35 -2 2.7 -2 1 C-1.34 0.67 -0.68 0.34 0 0 Z " fill="#2F3C72" transform="translate(613,82)"/>
<path d="M0 0 C0.33 0 0.66 0 1 0 C1 5.28 1 10.56 1 16 C1.66 16 2.32 16 3 16 C2.25 20.75 2.25 20.75 0 23 C0 15.41 0 7.82 0 0 Z " fill="#EDF4FE" transform="translate(106,80)"/>
<path d="M0 0 C0.66 0.99 1.32 1.98 2 3 C-0.97 5.47 -0.97 5.47 -4 8 C-4.66 7.67 -5.32 7.34 -6 7 C-6 6.01 -6 5.02 -6 4 C-3 1.81 -3 1.81 0 0 Z " fill="#2D386C" transform="translate(548,69)"/>
<path d="M0 0 C0.66 0 1.32 0 2 0 C0.54 5.31 -1.98 9.46 -5 14 C-5.33 12.68 -5.66 11.36 -6 10 C-5.34 10 -4.68 10 -4 10 C-4.09 8.86 -4.09 8.86 -4.19 7.69 C-4 5 -4 5 -2.56 3.31 C-1.79 2.66 -1.79 2.66 -1 2 C-0.67 1.34 -0.34 0.68 0 0 Z " fill="#39416D" transform="translate(781,65)"/>
<path d="M0 0 C1.94 0.81 1.94 0.81 4 2 C4.33 2.99 4.66 3.98 5 5 C2.03 5 -0.94 5 -4 5 C-3.34 4.67 -2.68 4.34 -2 4 C-0.87 1.98 -0.87 1.98 0 0 Z " fill="#2F3B61" transform="translate(57,98)"/>
<path d="M0 0 C4.66 1.5 5.87 4.88 8 9 C7.01 9.33 6.02 9.66 5 10 C4.16 8.71 3.33 7.42 2.5 6.12 C2.04 5.41 1.57 4.69 1.09 3.95 C0 2 0 2 0 0 Z " fill="#36436E" transform="translate(413,86)"/>
<path d="M0 0 C0.66 0.33 1.32 0.66 2 1 C1.67 2.32 1.34 3.64 1 5 C-0.98 5.33 -2.96 5.66 -5 6 C-5.33 5.34 -5.66 4.68 -6 4 C-4.02 2.68 -2.04 1.36 0 0 Z " fill="#313C6C" transform="translate(555,64)"/>
<path d="M0 0 C2.69 4.04 3.12 5.81 3.06 10.62 C3.05 11.63 3.04 12.63 3.04 13.66 C3.02 14.43 3.01 15.21 3 16 C2.67 16 2.34 16 2 16 C1.67 14.02 1.34 12.04 1 10 C0.67 10 0.34 10 0 10 C0 6.7 0 3.4 0 0 Z " fill="#555A84" transform="translate(506,69)"/>
<path d="M0 0 C0.99 0 1.98 0 3 0 C2.74 2.34 2.41 4.68 2 7 C1.01 7.5 1.01 7.5 0 8 C-0.66 7.67 -1.32 7.34 -2 7 C-2 6.34 -2 5.68 -2 5 C-1.34 5 -0.68 5 0 5 C0 3.35 0 1.7 0 0 Z " fill="#3E4774" transform="translate(177,93)"/>
<path d="M0 0 C0.99 0.33 1.98 0.66 3 1 C5.57 1.23 8.12 1.42 10.69 1.56 C11.74 1.63 11.74 1.63 12.81 1.69 C14.54 1.8 16.27 1.9 18 2 C18 2.33 18 2.66 18 3 C12.06 3 6.12 3 0 3 C0 2.01 0 1.02 0 0 Z " fill="#2C3258" transform="translate(753,100)"/>
<path d="M0 0 C2.48 0.99 2.48 0.99 5 2 C5 3.65 5 5.3 5 7 C1.84 5.63 1.01 5.01 -1 2 C-0.67 1.34 -0.34 0.68 0 0 Z " fill="#38416F" transform="translate(466,92)"/>
<path d="M0 0 C0.33 0 0.66 0 1 0 C1.66 4.95 2.32 9.9 3 15 C1.35 14.01 -0.3 13.02 -2 12 C-1.34 8.04 -0.68 4.08 0 0 Z " fill="#C7CDE1" transform="translate(460,76)"/>
<path d="M0 0 C0.33 0 0.66 0 1 0 C1 3.63 1 7.26 1 11 C-1.06 9.25 -1.06 9.25 -3 7 C-2.75 4.75 -2.75 4.75 -2 3 C-1.34 3 -0.68 3 0 3 C0 2.01 0 1.02 0 0 Z " fill="#394170" transform="translate(374,74)"/>
<path d="M0 0 C2.52 3.12 4.27 6.38 6 10 C5.01 10 4.02 10 3 10 C0.4 6.63 -0.36 4.23 0 0 Z " fill="#3B446E" transform="translate(39,64)"/>
<path d="M0 0 C0.33 0 0.66 0 1 0 C1 4.95 1 9.9 1 15 C0.34 13.68 -0.32 12.36 -1 11 C-1.66 10.67 -2.32 10.34 -3 10 C-2.01 9.67 -1.02 9.34 0 9 C0 6.03 0 3.06 0 0 Z " fill="#414770" transform="translate(374,88)"/>
<path d="M0 0 C0.66 0.66 1.32 1.32 2 2 C1.81 4 1.81 4 1 6 C-0.49 6.99 -0.49 6.99 -2 8 C-2.33 7.01 -2.66 6.02 -3 5 C-1.56 2.31 -1.56 2.31 0 0 Z " fill="#3E4977" transform="translate(464,67)"/>
<path d="M0 0 C0.99 0.33 1.98 0.66 3 1 C2.34 3.31 1.68 5.62 1 8 C0.34 7.67 -0.32 7.34 -1 7 C-1.66 7 -2.32 7 -3 7 C-2.65 6.38 -2.3 5.76 -1.94 5.12 C-1.63 4.42 -1.32 3.72 -1 3 C-1.33 2.34 -1.66 1.68 -2 1 C-1.34 0.67 -0.68 0.34 0 0 Z " fill="#212E68" transform="translate(421,63)"/>
<path d="M0 0 C-0.81 1.94 -0.81 1.94 -2 4 C-2.99 4.33 -3.98 4.66 -5 5 C-5.33 3.35 -5.66 1.7 -6 0 C-2.25 -1.12 -2.25 -1.12 0 0 Z " fill="#303E6E" transform="translate(451,97)"/>
<path d="M0 0 C2.31 0 4.62 0 7 0 C7 0.99 7 1.98 7 3 C4.69 3 2.38 3 0 3 C0 2.01 0 1.02 0 0 Z " fill="#EFFAFF" transform="translate(366,85)"/>
<path d="M0 0 C5.54 0.49 5.54 0.49 7.88 3.06 C8.43 4.02 8.43 4.02 9 5 C5 5 5 5 2.25 2.5 C1.51 1.67 0.76 0.85 0 0 Z " fill="#E7EEF8" transform="translate(536,67)"/>
<path d="M0 0 C0.33 0 0.66 0 1 0 C1 4.95 1 9.9 1 15 C0.67 15 0.34 15 0 15 C0 12.03 0 9.06 0 6 C-0.66 6 -1.32 6 -2 6 C-1.34 4.02 -0.68 2.04 0 0 Z " fill="#434970" transform="translate(374,57)"/>
<path d="M0 0 C1.32 0.33 2.64 0.66 4 1 C3.01 2.65 2.02 4.3 1 6 C0.01 5.67 -0.98 5.34 -2 5 C-1.34 3.35 -0.68 1.7 0 0 Z " fill="#363B6C" transform="translate(784,57)"/>
<path d="M0 0 C0.66 0 1.32 0 2 0 C0.79 4.43 -0.52 6.98 -4 10 C-3.62 7.06 -3.62 7.06 -3 4 C-2.34 3.67 -1.68 3.34 -1 3 C-0.67 2.01 -0.34 1.02 0 0 Z " fill="#39426B" transform="translate(506,86)"/>
<path d="M0 0 C2.31 0 4.62 0 7 0 C7 0.99 7 1.98 7 3 C3.87 4.04 3.01 3.93 0 3 C0 2.01 0 1.02 0 0 Z " fill="#283261" transform="translate(367,74)"/>
<path d="M0 0 C2.12 0.94 2.12 0.94 4 2 C3.01 2.5 3.01 2.5 2 3 C1.67 3.66 1.34 4.32 1 5 C0.01 5 -0.98 5 -2 5 C-2 3.68 -2 2.36 -2 1 C-1.34 0.67 -0.68 0.34 0 0 Z " fill="#2F3A6D" transform="translate(696,66)"/>
<path d="M0 0 C0.66 0.99 1.32 1.98 2 3 C-2.45 4.48 -2.45 4.48 -7 6 C-2.25 1.12 -2.25 1.12 0 0 Z " fill="#363C6D" transform="translate(426,58)"/>
<path d="M0 0 C4 4.75 4 4.75 4 7 C1.52 6.01 1.52 6.01 -1 5 C-0.67 3.35 -0.34 1.7 0 0 Z " fill="#354170" transform="translate(659,75)"/>
<path d="M0 0 C1.21 3.62 0.54 4.64 -1 8 C-1.99 7.34 -2.98 6.68 -4 6 C-2.85 3.53 -1.95 1.95 0 0 Z " fill="#EDF5FE" transform="translate(441,75)"/>
<path d="M0 0 C0.66 0 1.32 0 2 0 C0.81 3.38 -0.28 5.65 -3 8 C-3.33 7.34 -3.66 6.68 -4 6 C-2.73 3.96 -1.39 1.96 0 0 Z " fill="#E1E7F4" transform="translate(636,69)"/>
<path d="M0 0 C0.99 0.33 1.98 0.66 3 1 C1.35 2.65 -0.3 4.3 -2 6 C-2.66 5.34 -3.32 4.68 -4 4 C-2.68 2.68 -1.36 1.36 0 0 Z " fill="#E5EAF6" transform="translate(549,65)"/>
<path d="M0 0 C2.64 0.33 5.28 0.66 8 1 C6 3 6 3 2.88 3.12 C1.45 3.06 1.45 3.06 0 3 C0 2.01 0 1.02 0 0 Z " fill="#41496B" transform="translate(169,100)"/>
<path d="M0 0 C-0.66 1.32 -1.32 2.64 -2 4 C-2.99 3.67 -3.98 3.34 -5 3 C-5.33 2.01 -5.66 1.02 -6 0 C-3.51 -1.25 -2.59 -0.78 0 0 Z " fill="#263267" transform="translate(398,99)"/>
<path d="M0 0 C1.65 1.65 3.3 3.3 5 5 C3.68 5.33 2.36 5.66 1 6 C0.67 4.02 0.34 2.04 0 0 Z " fill="#444C77" transform="translate(437,81)"/>
<path d="M0 0 C0.66 0.66 1.32 1.32 2 2 C-2.39 6 -2.39 6 -4 7 C-4.99 6.67 -5.98 6.34 -7 6 C-6.34 6 -5.68 6 -5 6 C-5 5.34 -5 4.68 -5 4 C-4.36 3.9 -3.72 3.79 -3.06 3.69 C-2.38 3.46 -1.7 3.23 -1 3 C-0.67 2.01 -0.34 1.02 0 0 Z " fill="#CCD4E8" transform="translate(308,66)"/>
<path d="M0 0 C1.32 1.32 2.64 2.64 4 4 C3.34 5.32 2.68 6.64 2 8 C0.74 5.09 0 3.2 0 0 Z " fill="#39406C" transform="translate(613,63)"/>
<path d="M0 0 C0.6 0.21 1.2 0.41 1.81 0.62 C-0.5 1.95 -2.81 3.27 -5.19 4.62 C-5.19 3.63 -5.19 2.65 -5.19 1.62 C-2.19 -0.38 -2.19 -0.38 0 0 Z " fill="#E5E8F5" transform="translate(561.1875,58.375)"/>
<path d="M0 0 C0.33 0.66 0.66 1.32 1 2 C0.34 2 -0.32 2 -1 2 C-1.66 3.32 -2.32 4.64 -3 6 C-3.99 5.01 -4.98 4.02 -6 3 C-5.67 2.34 -5.34 1.68 -5 1 C-2.44 0.38 -2.44 0.38 0 0 Z " fill="#E2E6F2" transform="translate(695,57)"/>
</svg>